# xmcd
#
# Track frame offsets:
#	150
#	20915
#	37390
#	87110
#	115110
#	137137
#	161740
#	177170
#	191955
#	215690
#	235157
#
# Disc length: 3332 seconds
#
# Revision: 1
# Processed by: cddbd v1.5.1PL0 Copyright (c) Steve Scherf et al.
# Submitted via: CDex 1.50Beta5
#
DISCID=a30d020b
DTITLE=川澄綾子他 - 約束の絆
DYEAR=1900
DGENRE=
TTITLE0=プロローグ
TTITLE1=約束
TTITLE2=笑う門には福来たれる
TTITLE3=多芸は無芸
TTITLE4=急がば回れ
TTITLE5=負けるが勝ち
TTITLE6=後の祭り
TTITLE7=憎まれっ子世にはばかる
TTITLE8=人は心
TTITLE9=知らぬが仏
TTITLE10=エピローグ
EXTD=
EXTT0=
EXTT1=
EXTT2=
EXTT3=
EXTT4=
EXTT5=
EXTT6=
EXTT7=
EXTT8=
EXTT9=
EXTT10=
PLAYORDER=
